<svg xmlns="http://www.w3.org/2000/svg" viewBox="0 0 32 32">
  <defs>
    <linearGradient id="gradient" x1="0%" y1="0%" x2="100%" y2="100%">
      <stop offset="0%" style="stop-color:#4F46E5" />
      <stop offset="100%" style="stop-color:#818CF8" />
    </linearGradient>
  </defs>
  
  <path 
    fill="url(#gradient)"
    d="M16 2L4 7v9c0 5.2 3.3 10.1 8 11.8l4 1.2l4-1.2c4.7-1.7 8-6.6 8-11.8V7L16 2z"
  />
  
  <path 
    fill="white"
    d="M20 14h-1v-2c0-1.7-1.3-3-3-3s-3 1.3-3 3v2h-1c-1.1 0-2 .9-2 2v6c0 1.1.9 2 2 2h8c1.1 0 2-.9 2-2v-6c0-1.1-.9-2-2-2zm-5-2c0-.6.4-1 1-1s1 .4 1 1v2h-2v-2z"
  />
</svg>